<svg xmlns="http://www.w3.org/2000/svg" width="173" height="195" viewBox="0 0 173 195" version="1.1">
	<path d="M 83.709 0.697 C 82.724 0.953, 64.499 11.196, 43.209 23.458 C 13.832 40.379, 4.075 46.475, 2.737 48.741 C 1.127 51.470, 0.997 54.869, 1.237 88.061 L 1.500 124.394 8.361 116.168 L 15.221 107.942 12.991 102.757 C 10.418 96.777, 10.574 87.659, 13.339 82.311 C 24.938 59.882, 59.200 67.871, 59.200 93.005 L 59.200 98.681 64.350 101.178 L 69.500 103.675 73.775 100.378 C 80.668 95.061, 88.143 93.728, 95.836 96.442 L 99.923 97.884 106.833 90.264 L 113.742 82.643 111.893 78.572 C 109.677 73.692, 109.420 64.323, 111.375 59.645 C 115.233 50.412, 123.993 44.576, 134 44.571 C 143.475 44.566, 150.873 49.009, 155.112 57.250 C 157.011 60.941, 157.133 61, 162.939 61 C 166.182 61, 169.548 60.727, 170.418 60.393 C 172.599 59.556, 172.492 52.318, 170.245 48.660 C 167.815 44.705, 90.213 -0.269, 86.500 0.126 C 85.950 0.184, 84.694 0.441, 83.709 0.697 M 125.357 59.312 C 122.357 62.061, 121.664 63.464, 121.282 67.562 C 120.676 74.063, 123.714 78.855, 129.783 80.969 C 133.492 82.261, 134.508 82.261, 138.217 80.969 C 144.286 78.855, 147.324 74.063, 146.718 67.562 C 146.336 63.464, 145.643 62.061, 142.643 59.312 C 139.554 56.481, 138.299 56, 134 56 C 129.701 56, 128.446 56.481, 125.357 59.312 M 130.655 64.829 C 128.719 66.968, 128.484 71.084, 130.200 72.800 C 132.265 74.865, 136.804 74.228, 138.504 71.635 C 142.100 66.147, 135.019 60.006, 130.655 64.829 M 157.026 76.421 C 155.027 82.480, 150.488 87.614, 144.574 90.507 C 139.762 92.862, 138.152 93.163, 132.752 92.716 C 129.313 92.431, 125.589 91.902, 124.474 91.541 C 122.844 91.012, 121.161 92.344, 115.850 98.360 L 109.252 105.837 111.093 111.168 C 113.375 117.776, 113.423 120.200, 111.402 127.068 C 110.226 131.066, 108.574 133.693, 105.145 137.019 C 95.956 145.932, 82.624 146.506, 73.150 138.397 C 67.662 133.699, 64.852 128.028, 64.241 120.418 C 63.751 114.306, 63.727 114.266, 59.347 112.138 C 53.750 109.419, 53.603 109.430, 49.191 112.923 C 43.155 117.702, 35.246 118.929, 26.450 116.449 C 24.766 115.974, 22.407 118.270, 13.200 129.347 C 7.040 136.758, 2 143.487, 2 144.300 C 2 145.113, 2.788 146.704, 3.750 147.834 C 5.863 150.316, 80.555 193.420, 84.427 194.392 C 88.217 195.344, 91.745 193.551, 133 169.702 C 158.273 155.092, 169.003 148.362, 170.245 146.340 C 171.817 143.780, 171.990 140.023, 171.995 108.250 L 172 73 165.078 73 L 158.155 73 157.026 76.421 M 29.062 81.827 C 25.201 83.898, 22 89.098, 22 93.300 C 22 98.944, 26.471 104.511, 32.252 106.068 C 39.947 108.140, 48.004 101.629, 47.996 93.346 C 47.991 88.301, 44.805 83.234, 40.510 81.440 C 35.941 79.530, 33.169 79.624, 29.062 81.827 M 85.014 107.120 C 77.582 108.664, 73.272 117.817, 76.694 124.792 C 80.306 132.154, 88.314 134.935, 94.696 131.044 C 99.027 128.403, 101.113 124.932, 101.177 120.255 C 101.306 110.932, 94.253 105.200, 85.014 107.120" stroke="none" fill="black" fill-rule="evenodd"/>
</svg>